<?xml version="1.0" encoding="UTF-8"?>
<svg xmlns="http://www.w3.org/2000/svg" width="2.858in" height=".321in" viewBox="0 0 205.805 23.081">
  <g id="b" data-name="Tables">
    <g>
      <path d="m10.45,14.438c-.51,2.02-2.019,3.516-4.721,3.516-3.532,0-5.292-2.645-5.292-5.95,0-3.178,1.771-6.047,5.362-6.047,2.822,0,4.318,1.619,4.651,3.571h-1.733c-.385-1.201-1.186-2.149-2.983-2.149-2.482,0-3.489,2.253-3.489,4.571,0,2.232.943,4.583,3.557,4.583,1.771,0,2.51-1.045,2.907-2.094h1.741Z"/>
      <path d="m23.135,11.904c0,3.219-1.83,6.068-5.53,6.068-3.481,0-5.399-2.658-5.399-6.007s1.988-6.008,5.54-6.008c3.312,0,5.39,2.455,5.39,5.947Zm-9.122.01c0,2.478,1.237,4.599,3.665,4.599,2.623,0,3.648-2.168,3.648-4.584,0-2.458-1.163-4.511-3.653-4.511-2.545,0-3.66,2.047-3.66,4.497Z"/>
      <path d="m27.315,12.749v5.055h-1.712V6.126h4.671c2.428,0,3.724,1.32,3.724,3.14,0,1.527-.868,2.434-1.935,2.75.882.248,1.72.938,1.72,2.978v.515c0,.801-.029,1.796.158,2.296h-1.674c-.211-.504-.206-1.408-.206-2.531v-.234c0-1.59-.441-2.29-2.496-2.29h-2.25Zm0-1.437h2.459c1.709,0,2.446-.644,2.446-1.893,0-1.186-.773-1.857-2.293-1.857h-2.612v3.75Z"/>
      <path d="m39.62,17.804l-4.227-11.679h1.861l1.997,5.742c.587,1.698,1.15,3.36,1.41,4.451h.034c.244-.981.868-2.713,1.471-4.399l2.08-5.793h1.784l-4.364,11.679h-2.047Z"/>
      <path d="m48.325,14.453l-1.19,3.351h-1.72l4.122-11.679h2.146l4.3,11.679h-1.84l-1.232-3.351h-4.586Zm4.161-1.467c-1.06-2.955-1.655-4.575-1.914-5.496h-.017c-.286,1.021-.951,2.969-1.804,5.496h3.734Z"/>
      <path d="m57.832,6.126h1.733v10.211h6.039l-.229,1.467h-7.543V6.126Z"/>
    </g>
    <polygon points="205.554 22.879 67.718 22.879 67.718 .235 69.398 .235 69.398 21.198 203.874 21.198 203.874 1.917 74.698 1.9 74.698 .219 205.554 .235 205.554 22.879"/>
  </g>
  <g id="c" data-name="&amp;lt;Layer&amp;gt;">
    <g>
      <path d="m76.516,6.105v11.679h-1.733V6.105h1.733Z"/>
      <path d="m80.507,14.5c.307,1.357,1.242,2.068,2.87,2.068,1.732,0,2.427-.793,2.427-1.85,0-1.13-.573-1.74-2.85-2.287-2.833-.683-3.756-1.666-3.756-3.295,0-1.792,1.325-3.2,3.962-3.2,2.842,0,4.004,1.619,4.163,3.186h-1.76c-.192-.978-.795-1.817-2.461-1.817-1.347,0-2.111.599-2.111,1.659,0,1.042.628,1.455,2.645,1.94,3.343.809,3.961,2.099,3.961,3.626,0,1.931-1.438,3.404-4.337,3.404-2.942,0-4.264-1.578-4.513-3.434h1.76Z"/>
      <path d="m95.766,13.715l-1.496,4.069h-.925l4.321-11.771h1.076l4.507,11.771h-.992l-1.53-4.069h-4.961Zm4.658-.841c-1.312-3.498-1.984-5.179-2.22-5.969h-.017c-.286.891-1.043,2.976-2.103,5.969h4.339Z"/>
      <path d="m106.34,12.285v5.499h-.925V6.013h4.221c2.321,0,3.549,1.244,3.549,3.094,0,1.497-.892,2.472-2.203,2.758,1.211.286,2.018,1.076,2.018,3.077v.454c0,.824-.067,1.934.151,2.388h-.925c-.219-.504-.168-1.446-.168-2.455v-.303c0-1.934-.572-2.741-2.825-2.741h-2.893Zm0-.841h2.842c2.068,0,3.027-.773,3.027-2.32,0-1.446-.941-2.27-2.774-2.27h-3.095v4.59Z"/>
      <path d="m118.597,6.854h-3.952v-.841h8.845v.841h-3.968v10.93h-.925V6.854Z"/>
      <path d="m138.857,17.784h-.757c-.067-.135-.102-.74-.118-1.883-.42.807-1.345,2.018-3.8,2.018-3.38,0-5.112-2.573-5.112-5.919,0-3.515,1.85-6.155,5.297-6.155,2.539,0,4.221,1.329,4.591,3.498h-.908c-.505-1.665-1.665-2.657-3.716-2.657-2.943,0-4.288,2.287-4.288,5.263,0,2.69,1.295,5.129,4.17,5.129,2.942,0,3.767-1.917,3.767-4.523v-.135h-3.8v-.84h4.675v6.205Z"/>
      <path d="m143.377,13.715l-1.496,4.069h-.925l4.321-11.771h1.076l4.507,11.771h-.992l-1.53-4.069h-4.961Zm4.658-.841c-1.312-3.498-1.984-5.179-2.22-5.969h-.017c-.286.891-1.043,2.976-2.103,5.969h4.339Z"/>
      <path d="m153.026,6.013h.908v10.93h6.323l-.169.841h-7.062V6.013Z"/>
      <path d="m162.155,6.013h.908v10.93h6.323l-.169.841h-7.062V6.013Z"/>
      <path d="m178.195,12h-6.003v4.943h6.575l-.135.841h-7.349V6.013h7.214v.841h-6.306v4.305h6.003v.841Z"/>
      <path d="m182.093,12.285v5.499h-.925V6.013h4.221c2.321,0,3.548,1.244,3.548,3.094,0,1.497-.891,2.472-2.202,2.758,1.211.286,2.018,1.076,2.018,3.077v.454c0,.824-.067,1.934.151,2.388h-.925c-.219-.504-.168-1.446-.168-2.455v-.303c0-1.934-.572-2.741-2.825-2.741h-2.893Zm0-.841h2.842c2.068,0,3.027-.773,3.027-2.32,0-1.446-.941-2.27-2.774-2.27h-3.095v4.59Z"/>
      <path d="m194.635,17.784v-4.422c0-.101-.033-.219-.067-.269l-4.203-7.079h1.06c1.177,2.001,3.229,5.481,3.732,6.356.505-.875,2.573-4.321,3.834-6.356h1.009l-4.389,7.146c-.033.067-.051.134-.051.252v4.372h-.925Z"/>
    </g>
  </g>
</svg>